<?xml version="1.0" encoding="utf-8"?>
<!-- Generator: Adobe Illustrator 25.2.3, SVG Export Plug-In . SVG Version: 6.00 Build 0)  -->
<svg version="1.1" id="图层_1" xmlns="http://www.w3.org/2000/svg" xmlns:xlink="http://www.w3.org/1999/xlink" x="0px" y="0px"
	 viewBox="0 0 477.02 477.02" style="enable-background:new 0 0 477.02 477.02;" xml:space="preserve">
<style type="text/css">
	.st0{fill:#4188F2;}
	.st1{fill:#E94343;}
	.st2{fill:#39A64B;}
	.st3{fill:#FFFFFF;}
	.st4{fill:#231815;}
	.st5{fill:#1E1A19;}
	.st6{fill:#F7F8F8;}
	.st7{fill:#0482FA;}
	.st8{clip-path:url(#SVGID_2_);}
	.st9{clip-path:url(#SVGID_4_);}
	.st10{fill:none;stroke:#231815;stroke-width:6;stroke-miterlimit:10;}
</style>
<g>
	<circle class="st3" cx="238.51" cy="238.51" r="238.51"/>
	<g>
		<path class="st0" d="M398.03,194.13v77.34c0,11.78-9.08,22.05-20.85,22.4c-12.18,0.37-22.17-9.4-22.17-21.5v-78.24
			c0-10.66-8.64-19.3-19.3-19.3h0c-10.66,0-19.3,8.64-19.3,19.3v76.5c0,32.59,25.34,60.35,57.92,61.51
			c34.2,1.22,62.3-26.14,62.3-60.07v-77.94c0-10.66-8.64-19.3-19.3-19.3h0C406.67,174.84,398.03,183.48,398.03,194.13z"/>
		<g>
			<path class="st1" d="M122.01,164.13l0,107.34c0,11.78-9.08,22.05-20.85,22.4c-12.18,0.37-22.17-9.4-22.17-21.5v-36.23
				c0-10.66-8.64-19.3-19.3-19.3h0c-10.66,0-19.3,8.64-19.3,19.3v34.5c0,32.59,25.34,60.35,57.92,61.51
				c34.2,1.22,62.3-26.14,62.3-60.07V164.13c0-10.66-8.64-19.3-19.3-19.3h0C130.65,144.83,122.01,153.47,122.01,164.13z"/>
			<path class="st1" d="M78.99,252.88l0-17.33c0-11.78,9.08-22.05,20.85-22.4c12.18-0.37,22.17,9.4,22.17,21.5v18.23
				c0,10.66,8.64,19.3,19.3,19.3h0c10.66,0,19.3-8.64,19.3-19.3v-16.5c0-32.59-25.34-60.35-57.92-61.51
				c-34.2-1.22-62.3,26.14-62.3,60.07v17.94c0,10.66,8.64,19.3,19.3,19.3h0C70.35,272.18,78.99,263.54,78.99,252.88z"/>
		</g>
		<g>
			<circle class="st2" cx="251.87" cy="240.5" r="4.8"/>
			<path class="st2" d="M245.51,175.2c-36.21-3.93-66.84,24.33-66.84,59.74v77.94c0,10.66,8.64,19.3,19.3,19.3h0
				c10.66,0,19.3-8.64,19.3-19.3l-0.12-72.56c0-14.25,10.85-26.74,25.1-27.11c14.63-0.38,26.6,11.37,26.6,25.91v11.85
				c0,1.35-1.09,2.44-2.44,2.44h-6.13c-0.07,0,0,59.47,0,59.47c0,10.66,8.64,19.3,19.3,19.3h0c10.66,0,19.3-8.64,19.3-19.3v-76.26
				C298.88,205.71,276.24,178.54,245.51,175.2z"/>
		</g>
	</g>
</g>
</svg>
